<svg width="1367" height="768" xmlns="http://www.w3.org/2000/svg">
    <g fill="none" fill-rule="evenodd">
        <path fill="#EBDA92" d="M0 0h1366v768H0z"/>
        <path d="M1366.154 166c-9.118.962-18.031 3.833-25.933 8.51-14.384 8.475-31.791 20.85-36.078 36.991-17.138-10.755-39.627-12.443-58.182-4.34-18.538 8.088-37.819 25.461-41.584 45.35-26.591-14.385-67.922-4.88-85.16 19.956-7.142-6.027-20.953-8.323-28.753-3.157-18.335-17.07-46.125-23.249-69.965-15.567-23.84 7.682-42.394 29.226-47.29 53.791-14.03-11.48-33.312-4.88-42.597 10.67-12.68-6.685-30.863-3.916-41.078 6.146-14.672-17.559-39.575-25.849-61.844-20.615-22.268 5.251-42.411 25.866-47.713 48.118-8.12-6.99-24.278-2.144-27.655 8.02-19.365-14.79-50.414-10.721-65.322 8.577 95.51 43.846 202.855 45.095 307.836 49.536 103.901 4.39 214.083.776 320.381-2.972 17.086-.608 34.086-1.215 50.937-1.79V166z" fill="#F6E6A2"/>
        <path d="M.154 66c10.312 1.334 20.39 5.311 29.326 11.792 16.266 11.746 35.95 28.896 40.798 51.264 19.38-14.904 44.811-17.244 65.793-6.013 20.963 11.208 42.767 35.284 47.024 62.846 30.07-19.935 76.808-6.762 96.3 27.656 8.077-8.353 23.694-11.535 32.515-4.375 20.734-23.655 52.16-32.219 79.118-21.573s47.94 40.501 53.477 74.545c15.865-15.91 37.668-6.762 48.17 14.787 14.337-9.265 34.9-5.428 46.45 8.517 16.591-24.334 44.752-35.822 69.935-28.569 25.18 7.277 47.96 35.845 53.954 66.683 9.183-9.686 27.455-2.971 31.273 11.114 21.899-20.496 57.01-14.857 73.867 11.886-108.004 60.764-229.391 62.495-348.106 68.649-117.493 6.083-242.089 1.076-362.293-4.118-19.32-.843-38.545-1.685-57.6-2.48V66z" fill="#F6E6A2"/>
        <path d="M163.683 257c-11.778.034-23.752 1.102-35.971 3.531C79.774 270.066 40.197 291.853 0 312.425V767h1366V340.742c-33.713 4.7-71.25 21.487-102.268 17.676-63.965-7.84-127.165-50.31-186.268-69.351-67.37-21.692-122.12-7.991-189.928 13.018-67.79 21.009-139.806 45.473-212.459 35.584-68.482-9.316-126.31-48.288-196.03-48.739-17.477-.113-34.833 2.264-52.141 4.64-22.264 3.057-44.453 6.116-66.72 3.87-67.234-6.755-128.285-40.265-195.39-40.44h-1.113z" fill="#D7C67E"/>
        <path d="m871.573 482 1.65 6.542c47.413 1.69 93.277 19.847 136.646 38.83 3.4 1.49 6.78 2.978 10.159 4.466 1.79.772 3.56 1.58 5.35 2.353C1138.934 584.415 1252.467 634.64 1366 684.846V767H0v-72.519c11.144-4.815 23.068-10.793 33.77-16.729 30.475-16.907 59.703-36.993 90.52-52.099l2.072-8.288 1.65 6.487a273.284 273.284 0 0 1 17.984-7.792l2.655-10.548 1.93 7.7 1.288-5.09 1.328 5.274c17.44-6.138 35.585-10.07 54.916-10.457 16.636-.33 33.332 2.077 49.988 5.09l2.535-10.033 2.755 11.008c1.228.22 2.455.459 3.682.68l2.333-9.3 2.595 10.255c29.952 5.77 59.583 11.633 88.127 5.33l1.268-5 1.106 4.467c.563-.147 1.127-.294 1.67-.442l2.635-10.42 2.253 9.005a102.46 102.46 0 0 0 4.948-1.709l1.83-7.295 1.51 5.972c1.186-.496 2.373-1.01 3.54-1.543l3.078-12.221 1.508 6.028 2.072-8.178 2.454 9.74a191.575 191.575 0 0 0 6.518-3.841l.583-2.352.423 1.709c5.632-3.566 11.063-7.425 16.434-11.413 17.44-12.919 34.217-26.995 54.836-35.339l1.288-5.09 1.066 4.19c.865-.33 1.73-.662 2.615-.974l2.776-11.008 2.353 9.336c9.093-2.739 18.406-4.392 27.9-5.238l2.113-8.361 2.032 8.049c1.569-.092 3.138-.184 4.707-.24h-1.73l3.218-12.79 2.274 8.968 4.566-18.138 4.667 18.488 1.267-5.072 2.132 8.453c25.266.68 51.316 4.686 77.165 6.34l2.474-9.795 2.534 10.09c.463.018.906.054 1.348.073l2.555-10.163 2.615 10.365c9.837.312 19.613.165 29.268-.772 24.803-2.39 48.097-9.85 70.97-18.8l2.172-8.582 1.77 7.039c24.923-9.942 49.404-21.391 74.83-29.66l1.972-7.811 1.67 6.634c.422-.129.865-.257 1.287-.386l3.882-15.418 3.34 13.305c11.466-3.18 23.133-5.605 35.182-6.818 7.664-.79 15.288-1.066 22.872-.919l1.63-6.432z" fill="#C4B576"/>
    </g>
</svg>
