<svg width="1366" height="775" xmlns="http://www.w3.org/2000/svg" xmlns:xlink="http://www.w3.org/1999/xlink">
    <defs>
        <path id="a" d="M0 0h1366v775H0z"/>
    </defs>
    <g fill="none" fill-rule="evenodd">
        <mask id="b" fill="#fff">
            <use xlink:href="#a"/>
        </mask>
        <use fill="#769CFC" xlink:href="#a"/>
        <path fill="#9DB8FF" mask="url(#b)" d="M0 585h1366v190H0z"/>
        <path d="M860.699 96.475c14.37-28.37 46.266-47.259 82.038-45.341 38.486 2.057 69.549 27.588 77.985 60.732 9.48-4.384 20.305-6.62 31.637-6.018 10.765.579 20.734 3.643 29.304 8.556 13.24-9.07 29.837-14.064 47.557-13.117 15.698.836 29.967 6.244 41.4 14.729 12.335-24.341 39.712-40.546 70.417-38.901 33.035 1.765 59.698 23.67 66.938 52.105 8.138-3.76 17.429-5.68 27.156-5.163 22.128 1.189 40.341 14.609 47.518 32.763 4.036-.442 8.145-.623 12.337-.395 38.618 2.057 68.128 32.824 65.895 68.68-2.189 35.275-34.271 62.296-72.08 61.215-1.206 2.636-2.567 5.193-4.15 7.63a60.322 60.322 0 0 1 1.862 19.087c-2.223 35.869-35.34 63.27-73.961 61.199-14.359-.76-27.45-5.514-38.119-13.008-10.892 11.622-27.195 18.644-45.025 17.685-19.847-1.052-36.644-11.699-45.519-26.793-14.466 11.941-33.837 18.75-54.719 17.639-10.624-.57-20.604-3.148-29.543-7.315-15.368 22.413-42.99 36.644-73.573 35.003-16.729-.886-31.98-6.427-44.41-15.162-12.69 13.547-31.683 21.73-52.456 20.613-23.122-1.225-42.691-13.635-53.03-31.228-16.854 13.918-39.422 21.853-63.75 20.559-35.447-1.9-64.742-23.01-77.01-51.805-14.523 9.09-32.238 14.095-51.1 13.084a89.622 89.622 0 0 1-14.452-1.96c-13.74 14.917-34.564 23.907-57.294 22.688-14.359-.76-27.45-5.514-38.119-13.008-10.892 11.622-27.195 18.644-45.025 17.685-19.847-1.052-36.644-11.699-45.519-26.793-14.466 11.941-33.837 18.75-54.719 17.639-10.624-.57-20.604-3.148-29.543-7.315-15.368 22.413-42.99 36.644-73.573 35.003-16.729-.886-31.98-6.427-44.41-15.162-12.69 13.547-31.683 21.73-52.456 20.613-23.122-1.225-42.691-13.635-53.03-31.228-16.854 13.918-39.422 21.853-63.75 20.559-35.447-1.9-64.742-23.01-77.01-51.805-14.523 9.09-32.238 14.095-51.1 13.084-45.806-2.469-80.794-38.95-78.158-81.489 1.95-31.314 23.753-57.111 53.355-67.621-4.703-8.646-7.15-18.499-6.498-28.868 1.95-31.37 30.88-55.32 64.648-53.509a66.03 66.03 0 0 1 13.11 2.078c14.502-28.069 46.168-46.691 81.711-44.791 18.29.975 34.914 7.278 48.233 17.167 14.37-28.37 46.266-47.259 82.038-45.341 38.486 2.057 69.549 27.588 77.985 60.732 9.48-4.384 20.305-6.62 31.637-6.018 10.765.579 20.734 3.643 29.304 8.556 13.24-9.07 29.837-14.064 47.557-13.117 15.698.836 29.967 6.244 41.4 14.729 12.335-24.341 39.712-40.546 70.417-38.901 33.035 1.765 59.698 23.67 66.938 52.105 8.138-3.76 17.429-5.68 27.156-5.163 13.91.747 26.272 6.327 35.318 14.878 11.938-11.28 28.853-17.898 47.196-16.914a66.03 66.03 0 0 1 13.11 2.078c14.502-28.069 46.168-46.691 81.711-44.791 18.29.975 34.914 7.278 48.233 17.167z" fill="#80A3FF" mask="url(#b)"/>
        <path d="M860.907 257.825c14.382-25.47 46.304-42.426 82.105-40.705 38.517 1.847 69.606 24.767 78.049 54.521 9.488-3.935 20.321-5.944 31.663-5.402 10.55.508 20.339 3.157 28.795 7.41 13.26-8.193 29.91-12.708 47.69-11.855 15.697.75 29.966 5.603 41.398 13.217 12.334-21.843 39.71-36.384 70.413-34.908 33.032 1.584 59.694 21.24 66.934 46.757 8.137-3.375 17.428-5.097 27.154-4.633 22.127 1.067 40.339 13.109 47.515 29.4 4.036-.397 8.144-.56 12.336-.355 38.616 1.846 68.124 29.455 65.892 61.63-2.189 31.655-34.27 55.902-72.077 54.932-1.205 2.365-2.566 4.66-4.15 6.846a48.818 48.818 0 0 1 1.863 17.128c-2.223 32.187-35.338 56.775-73.957 54.917-14.358-.683-27.448-4.948-38.116-11.673-10.892 10.43-27.194 16.73-45.023 15.87-19.845-.944-36.642-10.498-45.516-24.043-14.466 10.716-33.835 16.825-54.715 15.828-10.398-.5-20.178-2.727-28.97-6.327-15.347 20.243-43.077 33.113-73.793 31.635-16.742-.796-32.006-5.77-44.446-13.611-12.7 12.161-31.709 19.508-52.499 18.505-23.14-1.1-42.726-12.241-53.074-28.035-16.867 12.495-39.454 19.619-63.8 18.456-35.478-1.705-64.796-20.657-77.075-46.507-14.534 8.16-32.264 12.655-51.14 11.746a99.357 99.357 0 0 1-14.91-1.848c-13.74 13.173-34.395 21.088-56.923 20.004-14.357-.683-27.448-4.948-38.116-11.673-10.892 10.43-27.194 16.73-45.023 15.87-19.845-.944-36.642-10.498-45.516-24.043-14.466 10.716-33.835 16.825-54.715 15.828-10.398-.5-20.178-2.727-28.97-6.327-15.347 20.243-43.077 33.113-73.793 31.635-16.742-.796-32.006-5.77-44.446-13.611-12.7 12.161-31.709 19.508-52.499 18.505-23.14-1.1-42.726-12.241-53.074-28.035-16.867 12.495-39.454 19.619-63.8 18.456-35.478-1.705-64.796-20.657-77.075-46.507-14.534 8.16-32.264 12.655-51.14 11.746-45.844-2.216-80.861-34.966-78.223-73.154 1.95-28.112 23.773-51.27 53.398-60.705-4.706-7.763-7.154-16.607-6.502-25.916 1.95-28.161 30.905-49.663 64.7-48.036 4.532.223 8.911.877 13.12 1.865 14.515-25.198 46.207-41.916 81.779-40.21 18.304.875 34.942 6.534 48.272 15.412 14.382-25.47 46.304-42.426 82.105-40.705 38.517 1.847 69.606 24.767 78.049 54.521 9.488-3.935 20.321-5.944 31.663-5.402 10.55.508 20.339 3.157 28.795 7.41 13.26-8.193 29.91-12.708 47.69-11.855 15.697.75 29.966 5.603 41.398 13.217 12.334-21.843 39.71-36.384 70.413-34.908 33.032 1.584 59.694 21.24 66.934 46.757 8.137-3.375 17.428-5.097 27.154-4.633 14.039.677 26.501 5.771 35.57 13.566 11.937-10.036 28.79-15.914 47.058-15.035 4.532.223 8.911.877 13.12 1.865 14.515-25.198 46.207-41.916 81.779-40.21 18.304.875 34.942 6.534 48.272 15.412z" fill="#8CACFF" mask="url(#b)"/>
        <path d="M858.907 395.825c14.382-25.47 46.304-42.426 82.105-40.705 38.517 1.847 69.606 24.767 78.049 54.521 9.488-3.935 20.321-5.944 31.663-5.402 10.55.508 20.339 3.157 28.795 7.41 13.26-8.193 29.91-12.708 47.69-11.855 15.697.75 29.966 5.603 41.398 13.217 12.334-21.843 39.71-36.384 70.413-34.908 33.032 1.584 59.694 21.24 66.934 46.757 8.137-3.375 17.428-5.097 27.154-4.633 22.127 1.067 40.339 13.109 47.515 29.4 4.036-.397 8.144-.56 12.336-.355 38.616 1.846 68.124 29.455 65.892 61.63-2.189 31.655-34.27 55.902-72.077 54.932-1.205 2.365-2.566 4.66-4.15 6.846a48.818 48.818 0 0 1 1.863 17.128c-2.223 32.187-35.338 56.775-73.957 54.917-14.358-.683-27.448-4.948-38.116-11.673-10.892 10.43-27.194 16.73-45.023 15.87-19.845-.944-36.642-10.498-45.516-24.043-14.466 10.716-33.835 16.825-54.715 15.828-10.398-.5-20.178-2.727-28.97-6.327-15.347 20.243-43.077 33.113-73.793 31.635-16.742-.796-32.006-5.77-44.446-13.611-12.7 12.161-31.709 19.508-52.499 18.505-23.14-1.1-42.726-12.241-53.074-28.035-16.867 12.495-39.454 19.619-63.8 18.456-35.478-1.705-64.796-20.657-77.075-46.507-14.534 8.16-32.264 12.655-51.14 11.746a99.357 99.357 0 0 1-14.91-1.848c-13.74 13.173-34.395 21.088-56.923 20.004-14.357-.683-27.448-4.948-38.116-11.673-10.892 10.43-27.194 16.73-45.023 15.87-19.845-.944-36.642-10.498-45.516-24.043-14.466 10.716-33.835 16.825-54.715 15.828-10.398-.5-20.178-2.727-28.97-6.327-15.347 20.243-43.077 33.113-73.793 31.635-16.742-.796-32.006-5.77-44.446-13.611-12.7 12.161-31.709 19.508-52.499 18.505-23.14-1.1-42.726-12.241-53.074-28.035-16.867 12.495-39.454 19.619-63.8 18.456-35.478-1.705-64.796-20.657-77.075-46.507-14.534 8.16-32.264 12.655-51.14 11.746-45.844-2.216-80.861-34.966-78.223-73.154 1.95-28.112 23.773-51.27 53.398-60.705-4.706-7.763-7.154-16.607-6.502-25.916 1.95-28.161 30.905-49.663 64.7-48.036 4.532.223 8.911.877 13.12 1.865 14.515-25.198 46.207-41.916 81.779-40.21 18.304.875 34.942 6.534 48.272 15.412 14.382-25.47 46.304-42.426 82.105-40.705 38.517 1.847 69.606 24.767 78.049 54.521 9.488-3.935 20.321-5.944 31.663-5.402 10.55.508 20.339 3.157 28.795 7.41 13.26-8.193 29.91-12.708 47.69-11.855 15.697.75 29.966 5.603 41.398 13.217 12.334-21.843 39.71-36.384 70.413-34.908 33.032 1.584 59.694 21.24 66.934 46.757 8.137-3.375 17.428-5.097 27.154-4.633 14.039.677 26.501 5.771 35.57 13.566 11.937-10.036 28.79-15.914 47.058-15.035 4.532.223 8.911.877 13.12 1.865 14.515-25.198 46.207-41.916 81.779-40.21 18.304.875 34.942 6.534 48.272 15.412z" fill="#9DB8FF" mask="url(#b)"/>
    </g>
</svg>
